Coordinates
version=1
nRows=17
nColumns=40
inDegrees=yes

Units are S.I. units (second, meters, Newtons, ...)
If the header above contains a line with 'inDegrees', this indicates whether rotational values are in degrees (yes) or radians (no).

endheader
time	pelvis_tilt	pelvis_list	pelvis_rotation	pelvis_tx	pelvis_ty	pelvis_tz	hip_flexion_r	hip_adduction_r	hip_rotation_r	knee_angle_r	knee_angle_r_beta	ankle_angle_r	subtalar_angle_r	mtp_angle_r	hip_flexion_l	hip_adduction_l	hip_rotation_l	knee_angle_l	knee_angle_l_beta	ankle_angle_l	subtalar_angle_l	mtp_angle_l	lumbar_extension	lumbar_bending	lumbar_rotation	arm_flex_r	arm_add_r	arm_rot_r	elbow_flex_r	pro_sup_r	wrist_flex_r	wrist_dev_r	arm_flex_l	arm_add_l	arm_rot_l	elbow_flex_l	pro_sup_l	wrist_flex_l	wrist_dev_l
1749651073.92300010	     -7.63129926	     12.88046868	    -59.22660711	      0.15931895	     -0.40403316	      0.83920647	     80.00000000	     -7.00000000	      0.00000000	     80.00000000	      1.39626340	      0.00000000	      0.00000000	      0.00000000	     80.00000000	     -7.00000000	      0.00000000	     80.00000000	      1.39626340	      0.00000000	      0.00000000	      0.00000000	     -5.15963307	      4.80523282	     -7.91007696	     20.60749185	    -10.00707942	    -55.69038952	      0.77069073	     68.59326391	      0.00000000	      5.00000014	     13.48263071	     -5.32931691	      0.06414173	     75.00017391	     45.00000026	      0.00000000	      5.00000014
1749651073.95600009	     -5.11861997	     13.29339126	     -5.31389566	      0.20709957	     -0.40255009	      0.77690309	     80.00000000	     -7.00000000	      0.00000000	     80.00000000	      1.39626340	      0.00000000	      0.00000000	      0.00000000	     80.00000000	     -7.00000000	      0.00000000	     80.00000000	      1.39626340	      0.00000000	      0.00000000	      0.00000000	     -1.90330163	      4.00882644	    -62.03444343	     18.43306628	     -8.63316277	    -69.67784032	      1.00766927	     72.46681902	      0.00000000	      5.00000014	     12.45210510	     -7.25238569	      0.04645588	     75.00017466	     45.00000026	      0.00000000	      5.00000014
1749651073.99000001	     -5.27197942	     13.11252041	     -5.31770342	      0.20540353	     -0.40227758	      0.77873986	     80.00000000	     -7.00000000	      0.00000000	     80.00000000	      1.39626340	      0.00000000	      0.00000000	      0.00000000	     80.00000000	     -7.00000000	      0.00000000	     80.00000000	      1.39626340	      0.00000000	      0.00000000	      0.00000000	     -2.10104630	      4.29176006	    -62.03434233	     18.25054154	     -8.47631933	    -69.67123592	      1.23063544	     72.44548825	      0.00000000	      5.00000014	     12.16876711	     -7.70866947	      0.04215585	     75.00017466	     45.00000026	      0.00000000	      5.00000014
1749651074.02300000	     -5.45247969	     13.02142802	     -6.89629064	      0.20341742	     -0.40282628	      0.78238058	     80.00000000	     -7.00000000	      0.00000000	     80.00000000	      1.39626340	      0.00000000	      0.00000000	      0.00000000	     80.00000000	     -7.00000000	      0.00000000	     80.00000000	      1.39626340	      0.00000000	      0.00000000	      0.00000000	     -2.27439858	      4.38712296	    -60.38044465	     18.35543408	     -8.05629193	    -67.87049602	      1.21857288	     69.35917248	      0.00000000	      5.00000014	     12.22308916	     -8.06415783	      0.03905052	     75.00017475	     45.00000026	      0.00000000	      5.00000014
1749651074.05699992	     -5.28953795	     13.17795613	     -7.01678402	      0.20453089	     -0.40227083	      0.78144338	     80.00000000	     -7.00000000	      0.00000000	     80.00000000	      1.39626340	      0.00000000	      0.00000000	      0.00000000	     80.00000000	     -7.00000000	      0.00000000	     80.00000000	      1.39626340	      0.00000000	      0.00000000	      0.00000000	     -2.37878355	      4.40364112	    -60.15584539	     18.43964487	     -8.29534544	    -67.76014760	      1.45565737	     69.11642763	      0.00000000	      5.00000014	     12.42798131	     -7.92378090	      0.04040729	     75.00017477	     45.00000026	      0.00000000	      5.00000014
1749651074.08999991	     -5.25972728	     13.59496660	      3.45663182	      0.20772808	     -0.40149926	      0.76104149	     80.00000000	     -7.00000000	      0.00000000	     80.00000000	      1.39626340	      0.00000000	      0.00000000	      0.00000000	     80.00000000	     -7.00000000	      0.00000000	     80.00000000	      1.39626340	      0.00000000	      0.00000000	      0.00000000	     -1.13371974	      4.45190581	    -70.73840466	     18.30107825	     -7.85077065	    -76.09653458	      6.48407940	     78.13347631	      0.00000000	      5.00000014	     12.58841913	     -8.04604879	      0.04002962	     75.00017521	     45.00000026	      0.00000000	      5.00000014
1749651074.12400007	     -4.90482231	     13.63630876	     -0.25740691	      0.20917838	     -0.40210591	      0.76675399	     80.00000000	     -7.00000000	      0.00000000	     80.00000000	      1.39626340	      0.00000000	      0.00000000	      0.00000000	     80.00000000	     -7.00000000	      0.00000000	     80.00000000	      1.39626340	      0.00000000	      0.00000000	      0.00000000	     -1.64496188	      4.38750119	    -66.95905340	     18.59187982	     -9.51340603	    -70.22794598	      1.94840375	     76.65618723	      0.00000000	      5.00000014	     12.85005557	     -8.06928863	      0.03991266	     75.00017539	     45.00000026	      0.00000000	      5.00000014
1749651074.15700006	     -7.51999881	     12.54882969	    -65.02152061	      0.15571389	     -0.41160094	      0.84079060	     80.00000000	     -7.00000000	      0.00000000	     80.00000000	      1.39626340	      0.00000000	      0.00000000	      0.00000000	     80.00000000	     -7.00000000	      0.00000000	     80.00000000	      1.39626340	      0.00000000	      0.00000000	      0.00000000	     -7.07105733	      6.64011501	      1.99537697	     18.95525216	    -13.36431721	     -8.24347385	     75.88847044	     42.99251284	      0.00000000	      5.00000014	     16.07938906	     -5.38443934	      0.06059773	     75.00017580	     45.00000026	      0.00000000	      5.00000014
1749651074.19099998	     -2.72250967	     14.81690785	    -65.60025542	      0.16220663	     -0.42291897	      0.83851462	     80.00000000	     -7.00000000	      0.00000000	     80.00000000	      1.39626340	      0.00000000	      0.00000000	      0.00000000	     80.00000000	     -7.00000000	      0.00000000	     80.00000000	      1.39626340	      0.00000000	      0.00000000	      0.00000000	     -6.03307191	      1.45169606	      1.08251746	     18.70133773	    -14.38267095	     -8.24817244	     75.88762947	     42.99779143	      0.00000000	      5.00000014	     16.28053828	     -6.05991853	      0.05383514	     75.00017580	     45.00000026	      0.00000000	      5.00000014
1749651074.22399998	     -9.07266412	     11.85377411	    -60.61904665	      0.15054079	     -0.40681005	      0.84569684	     80.00000000	     -7.00000000	      0.00000000	     80.00000000	      1.39626340	      0.00000000	      0.00000000	      0.00000000	     80.00000000	     -7.00000000	      0.00000000	     80.00000000	      1.39626340	      0.00000000	      0.00000000	      0.00000000	     -5.82314765	      6.12352670	     -4.58276408	     19.29122750	     -9.25788666	    -86.43292295	     13.32318953	     67.97282854	      0.00000000	      5.00000014	     14.55556645	     -7.87184682	      0.04502214	     75.00017586	     45.00000026	      0.00000000	      5.00000014
1749651074.25699997	     -5.43298867	     13.44730656	     -9.66836882	      0.20181543	     -0.40682861	      0.78591867	     80.00000000	     -7.00000000	      0.00000000	     80.00000000	      1.39626340	      0.00000000	      0.00000000	      0.00000000	     80.00000000	     -7.00000000	      0.00000000	     80.00000000	      1.39626340	      0.00000000	      0.00000000	      0.00000000	     -2.25579066	      3.83240564	    -56.35072938	     17.33395861	     -8.87780455	    -88.00782937	     12.53490326	     45.55668148	      0.00000000	      5.00000014	     13.80345646	    -10.05926804	      0.02506780	     75.00017585	     45.00000026	      0.00000000	      5.00000014
1749651074.29099989	     -9.13317339	     11.87874287	    -58.75465303	      0.15221275	     -0.40515910	      0.84556697	     80.00000000	     -7.00000000	      0.00000000	     80.00000000	      1.39626340	      0.00000000	      0.00000000	      0.00000000	     80.00000000	     -7.00000000	      0.00000000	     80.00000000	      1.39626340	      0.00000000	      0.00000000	      0.00000000	     -5.75080601	      5.93700686	     -5.93940167	     19.37917765	    -14.22444071	    -81.83568882	      3.07543094	     18.70297721	      0.00000000	      5.00000014	     14.94817658	     -8.28159472	      0.04149326	     75.00017585	     45.00000026	      0.00000000	      5.00000014
1749651074.32399988	     -8.32192452	     11.55177586	    -60.14494539	      0.15742277	     -0.41019428	      0.84376949	     80.00000000	     -7.00000000	      0.00000000	     80.00000000	      1.39626340	      0.00000000	      0.00000000	      0.00000000	     80.00000000	     -7.00000000	      0.00000000	     80.00000000	      1.39626340	      0.00000000	      0.00000000	      0.00000000	     -6.60481553	      7.86762906	     -2.27676742	     18.92447324	    -17.38622077	     -0.42596229	     75.50585307	     44.93187718	      0.00000000	      5.00000014	     16.32256629	     -7.37117005	      0.04479620	     75.00017585	     45.00000026	      0.00000000	      5.00000014
1749651074.35800004	     -8.12577078	     12.25060939	    -63.62317102	      0.15253304	     -0.41070812	      0.84414779	     80.00000000	     -7.00000000	      0.00000000	     80.00000000	      1.39626340	      0.00000000	      0.00000000	      0.00000000	     80.00000000	     -7.00000000	      0.00000000	     80.00000000	      1.39626340	      0.00000000	      0.00000000	      0.00000000	     -6.94046652	      7.57757194	      1.99699368	     17.85240433	    -19.90468342	     -0.44821187	     75.50251460	     44.93311858	      0.00000000	      5.00000014	     16.78736740	     -7.18805368	      0.04629723	     75.00017585	     45.00000026	      0.00000000	      5.00000014
1749651074.39100003	     -7.96195109	     12.07157871	    -61.48554669	      0.15462061	     -0.41055937	      0.84409831	     80.00000000	     -7.00000000	      0.00000000	     80.00000000	      1.39626340	      0.00000000	      0.00000000	      0.00000000	     80.00000000	     -7.00000000	      0.00000000	     80.00000000	      1.39626340	      0.00000000	      0.00000000	      0.00000000	     -6.79509022	      7.62117997	      0.69764556	     17.90756807	    -21.72454774	     -0.46443739	     75.49956458	     44.93420401	      0.00000000	      5.00000014	     17.17364054	     -7.18892763	      0.04603784	     75.00017585	     45.00000026	      0.00000000	      5.00000014
1749651074.42499995	     -8.02159864	     11.58751220	    -59.77999726	      0.15838065	     -0.41051716	      0.84437117	     80.00000000	     -7.00000000	      0.00000000	     80.00000000	      1.39626340	      0.00000000	      0.00000000	      0.00000000	     80.00000000	     -7.00000000	      0.00000000	     80.00000000	      1.39626340	      0.00000000	      0.00000000	      0.00000000	     -6.37317201	      8.00019714	     -1.81084636	     19.30757813	    -23.46938015	     -0.48069651	     75.49676608	     44.93522260	      0.00000000	      5.00000014	     16.27160064	     -7.43654668	      0.04418998	     75.00017585	     45.00000026	      0.00000000	      5.00000014
1749651074.45799994	     -1.43096462	     10.16675499	    -72.66172660	      0.15122723	     -0.39139457	      0.86762182	     80.00000000	     -7.00000000	      0.00000000	     80.00000000	      1.39626340	      0.00000000	      0.00000000	      0.00000000	     80.00000000	     -7.00000000	      0.00000000	     80.00000000	      1.39626340	      0.00000000	      0.00000000	      0.00000000	    -10.42626699	     -0.65782580	     11.06617823	      7.40056898	    -22.00622686	    -87.01361763	      0.23910656	      1.86059199	      0.00000000	      5.00000014	     15.70517617	     -6.81630617	      0.04525273	     75.00017585	     45.00000026	      0.00000000	      5.00000014
